<?xml version="1.0" encoding="UTF-8"?>
<!DOCTYPE svg PUBLIC "-//W3C//DTD SVG 1.1//EN" "http://www.w3.org/Graphics/SVG/1.1/DTD/svg11.dtd">
<!-- Creator: CorelDRAW 2018 (64-Bit) -->
<svg xmlns="http://www.w3.org/2000/svg" xml:space="preserve" width="169.965mm" height="82.1344mm" version="1.1" style="shape-rendering:geometricPrecision; text-rendering:geometricPrecision; image-rendering:optimizeQuality; fill-rule:evenodd; clip-rule:evenodd"
viewBox="0 0 17326.3 8372.82"
 xmlns:xlink="http://www.w3.org/1999/xlink">
 <defs>
  <style type="text/css">
   <![CDATA[
    .fil1 {fill:#008CD1}
    .fil0 {fill:#008CD1;fill-rule:nonzero}
   ]]>
  </style>
 </defs>
 <g id="Слой_x0020_1">
  <metadata id="CorelCorpID_0Corel-Layer"/>
  <path class="fil0" d="M15066.29 2556.65c0,669.8 249.1,1004.22 747.31,1004.22 226,0 406.8,-85.05 542.4,-256.13 136.61,-171.08 204.91,-420.44 204.91,-748.09 0,-656.27 -249.11,-984.89 -747.32,-984.89 -227,0 -408.8,86.02 -544.4,257.09 -135.6,172.04 -202.9,414.64 -202.9,727.79zm-765.38 0.97c0,-458.13 137.6,-834.11 413.83,-1126.97 275.22,-292.85 641.85,-438.79 1098.86,-438.79 479.13,0 850.77,141.11 1114.93,424.3 265.19,283.19 397.77,664 397.77,1141.47 0,496.79 -137.61,884.36 -413.84,1163.69 -275.21,279.33 -641.84,419.47 -1098.87,419.47 -475.09,0 -845.74,-143.05 -1112.92,-429.14 -266.17,-286.1 -399.76,-670.77 -399.76,-1154.03zm-3042.74 1525.17l735.26 0 0 -2435.64 1253.54 0 0 2435.64 735.25 0c0,-879.65 -1.06,-1759.13 2.67,-2638.73 1.44,-340.18 -152.36,-406.17 -464.11,-395.24 -196.83,6.9 -412.46,1.51 -611.32,1.68 -407.07,0.37 -814.14,0.51 -1221.21,-0.69 -153.92,-0.47 -310.99,-14.5 -392.29,153.8 -54.01,111.79 -37.79,283.15 -37.79,408.76 0,823.47 0,1646.95 0,2470.42zm-950.48 -1583.17c180.79,55.09 325.43,144.98 433.92,270.63 108.47,125.64 162.72,261.93 162.72,408.83 0,315.09 -119.53,554.79 -357.59,720.07 -238.05,165.28 -564.5,247.43 -978.32,247.43 -483.15,0 -885.93,-112.12 -1207.35,-336.35l364.61 -556.72c251.11,204.9 547.43,307.35 889.94,307.35 352.56,0 529.35,-125.64 529.35,-375.98 0,-271.59 -208.93,-406.91 -627.77,-406.91 -156.69,0 -297.32,5.8 -420.87,17.4l0 -556.72c72.33,3.86 231.03,5.8 476.1,5.8 333.49,0 500.22,-112.12 500.22,-336.35 0,-103.42 -40.18,-186.54 -120.53,-248.4 -80.36,-62.83 -195.87,-93.75 -344.52,-93.75 -279.25,0 -552.45,77.32 -821.64,231.97l-262.16 -556.72c380.69,-170.11 759.35,-255.16 1138.04,-255.16 346.53,0 625.76,81.19 835.7,243.56 210.92,162.38 316.39,364.39 316.39,607.95 0,326.68 -168.75,547.04 -506.24,662.06zm-1952.92 1583.17l-753.33 0c-160.72,-856.34 -246.09,-1334.77 -255.13,-1434.32 -9.05,-100.51 -13.07,-169.14 -13.07,-206.84l-29.11 0c-79.79,109.77 -159.58,219.54 -239.38,329.32 -164.38,226.14 -327.48,450.5 -489.12,678.68 -167.79,236.88 -346.87,209.27 -506.19,-16.91 -79.63,-113.05 -160.38,-221.49 -242.67,-332.46 -162.79,-219.54 -325.58,-439.09 -488.37,-658.63l-30.12 0c0,126.62 -18.08,294.79 -55.25,506.46l-194.85 1134.7 -717.18 0c100.23,-521.84 200.45,-1043.7 300.67,-1565.54 21.84,-113.73 43.68,-227.47 65.53,-341.2 61.87,-322.16 128.17,-643.84 181.65,-967.48 21.5,-130.09 75.56,-258.55 234.76,-220.95 139.68,32.99 205.6,182.89 278.24,293.58 148.93,226.99 298.01,453.88 447.03,680.82 67.05,102.11 134.1,204.24 201.16,306.36 70.78,107.79 141.55,215.59 212.33,323.39 33.53,51.06 67.06,102.12 100.58,153.19 340.34,-533.22 683.88,-1064.59 1018.68,-1601.27 64.02,-102.62 183.45,-208.53 309.82,-141.54 107.38,56.93 110.11,240.64 131.13,350.97 20.4,107.07 41.72,214.16 62.58,321.15 26.1,133.81 52.18,267.61 78.27,401.42 26.09,133.81 52.18,267.61 78.27,401.42 26.09,133.81 52.17,267.61 78.27,401.42 26.09,133.81 52.17,267.61 78.26,401.42 26.1,133.81 52.18,267.61 78.27,401.42 26.09,133.81 52.18,267.61 78.27,401.42z"/>
  <path class="fil0" d="M4601 5477.65l-87.7 0 -52.75 -276 -102.67 283.17 -32.08 0 -103.03 -283.17 -55.26 276 -86.98 0 102.67 -512.58 47.76 0 110.52 345.54 107.66 -345.54 47.77 0 104.09 512.58zm464.76 0l-90.55 0 0 -344.82 -266.66 352.71 -38.5 0 0 -520.47 90.55 0 0 344.82 266.66 -352.71 38.5 0 0 520.47zm404.39 0l-37.91 -103.95 -174.67 0 -34.83 103.95 -101.24 0 203.91 -519.75 39.22 0 205.35 519.75 -99.82 0zm-125.49 -362.74l-61.44 189.25 122.52 0 -61.08 -189.25zm629.7 -122.59l-36.83 75.27c-20.44,-20.55 -52.89,-30.83 -97.21,-30.83 -44.56,0 -79.86,18.52 -106.12,55.68 -26.26,37.03 -39.33,81.85 -39.33,134.3 0,52.57 12.23,95.34 36.6,128.69 24.35,33.21 58.35,49.82 101.96,49.82 48,0 85.44,-17.21 112.41,-51.61l42.77 73.84c-37.19,39.2 -91.38,58.79 -162.56,58.79 -71.77,0 -127.26,-23.66 -166.48,-70.86 -39.21,-47.19 -58.82,-111.35 -58.82,-192.24 0,-75.16 21.63,-138.49 64.89,-190.1 43.37,-51.5 99.7,-77.31 169.1,-77.31 57.51,0 104.09,12.19 139.63,36.57zm436.23 0l-36.84 75.27c-20.44,-20.55 -52.88,-30.83 -97.2,-30.83 -44.57,0 -79.87,18.52 -106.12,55.68 -26.26,37.03 -39.33,81.85 -39.33,134.3 0,52.57 12.23,95.34 36.6,128.69 24.35,33.21 58.35,49.82 101.95,49.82 48,0 85.44,-17.21 112.42,-51.61l42.77 73.84c-37.19,39.2 -91.38,58.79 -162.56,58.79 -71.77,0 -127.26,-23.66 -166.48,-70.86 -39.21,-47.19 -58.82,-111.35 -58.82,-192.24 0,-75.16 21.63,-138.49 64.87,-190.1 43.38,-51.5 99.71,-77.31 169.11,-77.31 57.51,0 104.09,12.19 139.63,36.57zm459.76 487.49c-6.67,1.44 -16.64,2.15 -29.72,2.15 -31.6,0 -55.5,-7.65 -71.65,-23.06 -16.16,-15.41 -27.45,-40.62 -33.99,-75.63 -8.8,-48.99 -24.6,-84.24 -47.29,-105.74 -22.58,-21.39 -54.67,-32.14 -96.26,-32.14l-4.15 0 0 232.27 -89.84 0 0 -512.58 89.84 0 0 202.88 7 0c40.4,0 71.89,-8.96 94.47,-26.77 22.47,-17.8 37.2,-45.4 44.1,-82.8 6.52,-34.06 16.75,-58.67 30.89,-73.97 14.02,-15.29 36.84,-22.94 68.33,-22.94 12.71,0 23.29,0.6 31.85,1.79l0 80.65c-2.39,-0.48 -7.37,-0.71 -14.98,-0.71 -10.45,0 -17.82,2.51 -22.1,7.41 -4.28,4.89 -8.32,16.25 -12.01,34.29 -6.29,30.1 -19.84,56.04 -40.4,77.78 -20.67,21.74 -46.7,36.2 -78.08,43.38 33.16,9.8 59.66,26.4 79.62,49.58 19.97,23.18 34,55.68 42.19,97.37 4.39,20.91 8.91,33.94 13.66,38.95 4.76,5.02 13.07,7.53 24.97,7.53 4.86,0 9.38,-0.48 13.55,-1.44l0 81.73zm479.24 -2.15l-90.54 0 0 -344.82 -266.67 352.71 -38.49 0 0 -520.47 90.54 0 0 344.82 266.67 -352.71 38.49 0 0 520.47zm500.64 0l-90.54 0 0 -344.82 -266.67 352.71 -38.49 0 0 -520.47 90.54 0 0 344.82 266.67 -352.71 38.49 0 0 520.47zm-57.75 -662.41c-7.01,35.24 -21.87,62.01 -44.79,80.17 -22.81,18.29 -51.46,27.36 -85.79,27.36 -34,0 -62.15,-9.07 -84.73,-27.36 -22.47,-18.16 -37.2,-44.93 -44.21,-80.17l72.73 -15.06c5.34,42.06 24.72,63.08 57.98,63.08 34.82,0 54.07,-20.79 57.51,-62.37l71.3 14.34zm613.76 381.98c29.47,10.75 51.93,27.25 67.62,49.71 15.57,22.35 23.41,49.1 23.41,80.18 0,49.34 -17.35,88.29 -52.04,116.61 -34.7,28.32 -82.11,42.54 -142.49,42.54 -60.48,0 -112.17,-13.14 -154.83,-39.43l39.56 -79.57c36.37,27.24 76.29,40.86 119.67,40.86 30.66,0 54.55,-7.28 71.66,-21.74 17.22,-14.46 25.78,-33.93 25.78,-58.54 0,-30.35 -10.1,-53.41 -30.18,-69.06 -20.08,-15.65 -48.96,-23.42 -86.52,-23.42 -20.44,0 -37.9,0.71 -52.28,2.15l0 -74.56c18.06,1.92 36.24,2.87 54.3,2.87 30.9,0 54.78,-6.22 71.65,-18.77 16.76,-12.43 25.19,-30.35 25.19,-53.64 0,-19.59 -7.48,-34.54 -22.58,-44.81 -14.96,-10.28 -34.33,-15.41 -58.1,-15.41 -31.61,0 -66.67,10.28 -105.06,30.83l-31.01 -75.27c51.34,-21.98 99.11,-32.98 143.2,-32.98 50.86,0 91.02,11.59 120.61,34.77 29.47,23.3 44.21,55.68 44.21,97.14 0,25.45 -6.41,48.03 -19.37,67.63 -12.83,19.59 -30.31,33.58 -52.41,41.94zm472.6 280.43l-37.91 -103.95 -174.67 0 -34.82 103.95 -101.25 0 203.92 -519.75 39.22 0 205.35 519.75 -99.83 0zm-125.48 -362.74l-61.44 189.25 122.52 0 -61.08 -189.25zm436.35 362.74l-156.02 0 0 -512.34c80.09,-3.47 128.22,-5.26 144.49,-5.26 52.65,0 94.12,11.48 124.19,34.29 30.06,22.95 45.04,55.45 45.04,97.74 0,41.1 -21.4,73.24 -64.18,96.3 63.22,21.87 94.84,67.75 94.84,137.41 0,46.72 -17.47,83.63 -52.53,110.88 -35.06,27.36 -80.33,40.98 -135.83,40.98zm-65.48 -439.1l0 122.23c18.07,0.96 32.8,1.44 44.21,1.44 58.94,0 88.4,-22.22 88.4,-66.79 0,-39.55 -26.96,-59.38 -80.8,-59.38 -13.9,0 -31.14,0.84 -51.82,2.51zm0 193.56l0 169.55c18.42,1.43 33.4,2.15 45.04,2.15 37.79,0 66.42,-6.45 85.68,-19.36 19.37,-13.03 29,-36.32 29,-70.14 0,-28.68 -8.33,-49.71 -24.97,-63.21 -16.63,-13.37 -46.34,-20.07 -89.12,-20.07 -16.28,0 -31.49,0.36 -45.64,1.08zm310.99 -15.3c0,-72.77 19.85,-134.53 59.66,-185.07 39.81,-50.66 93.16,-76 160.06,-76 72.61,0 128.47,22.7 167.44,68.11 38.99,45.28 58.47,109.69 58.47,192.96 0,83.52 -20.32,149.24 -60.96,197.39 -40.52,48.03 -98.05,72.05 -172.31,72.05 -69.17,0 -121.8,-24.25 -158.05,-72.64 -36.24,-48.39 -54.3,-113.99 -54.3,-196.8zm94.12 0.12c0,62.37 10.21,109.33 30.65,140.87 20.32,31.66 49.55,47.43 87.58,47.43 45.27,0 79.73,-15.89 103.51,-47.56 23.76,-31.77 35.65,-78.62 35.65,-140.75 0,-120.08 -43.98,-180.18 -131.8,-180.18 -40.87,0 -72,16.25 -93.39,48.64 -21.52,32.5 -32.2,76.34 -32.2,131.54zm883.51 407.68l-79.86 0 0 -146.97 -333.68 0 0 146.97 -79.85 0 0 -222.24 34.95 0c27.8,-36.21 56.08,-86.63 84.6,-151.38 28.52,-64.76 55.25,-160.11 80.09,-285.92l236.72 0 0 437.3 57.04 0 0 222.24zm-144.02 -222.24l0 -362.76 -87 0c-11.88,72.65 -29.71,141.71 -53.35,207.31 -23.76,65.6 -49.67,117.46 -77.83,155.45l218.17 0zm795.93 75.27l-90.54 0 0 -432.29 -188.23 0 0 432.29 -90.54 0 0 -512.58 369.32 0 0 512.58zm195.36 -188.91l0 188.91 -90.54 0 0 -512.34c66.66,-2.51 102.07,-3.82 106.23,-3.82 79.49,0 138.09,12.3 175.88,37.03 37.66,24.74 56.56,63.57 56.56,116.5 0,117.46 -69.04,176.23 -207.01,176.23 -10.45,0 -24.12,-0.84 -41.11,-2.51zm0 -244.82l0 164.18c15.57,1.43 27.7,2.15 36.25,2.15 41.36,0 71.53,-6.81 90.67,-20.43 19.01,-13.74 28.52,-36.33 28.52,-67.87 0,-52.93 -42.66,-79.45 -127.86,-79.45 -12.84,0 -21.99,0.48 -27.57,1.43zm305.06 172.89c0,-72.77 19.84,-134.53 59.66,-185.07 39.8,-50.66 93.15,-76 160.06,-76 72.61,0 128.47,22.7 167.44,68.11 38.98,45.28 58.46,109.69 58.46,192.96 0,83.52 -20.32,149.24 -60.96,197.39 -40.52,48.03 -98.04,72.05 -172.3,72.05 -69.17,0 -121.81,-24.25 -158.06,-72.64 -36.24,-48.39 -54.29,-113.99 -54.29,-196.8zm94.11 0.12c0,62.37 10.22,109.33 30.66,140.87 20.32,31.66 49.54,47.43 87.58,47.43 45.26,0 79.73,-15.89 103.5,-47.56 23.76,-31.77 35.65,-78.62 35.65,-140.75 0,-120.08 -43.98,-180.18 -131.79,-180.18 -40.87,0 -72.01,16.25 -93.4,48.64 -21.52,32.5 -32.2,76.34 -32.2,131.54zm917.03 260.71l-87.7 0 -52.76 -276 -102.67 283.17 -32.08 0 -103.02 -283.17 -55.27 276 -86.98 0 102.67 -512.58 47.76 0 110.52 345.54 107.66 -345.54 47.77 0 104.1 512.58zm157.45 -319.5c28.29,-2.99 49.79,-4.54 64.41,-4.54 58.94,0 104.69,14.1 137.14,42.3 32.43,28.32 48.72,68.59 48.72,121.16 0,48.75 -16.51,87.7 -49.44,116.85 -33.03,29.15 -79.01,43.73 -137.97,43.73l-151.26 0 0 -512.58 88.4 0 0 193.08zm0 243.52c25.55,1.43 41.11,2.15 46.59,2.15 43.84,0 73.67,-8.73 89.47,-25.93 15.8,-17.32 23.65,-39.19 23.65,-65.83 0,-26.05 -8.91,-46.84 -26.73,-62.26 -17.95,-15.41 -45.52,-23.06 -82.84,-23.06 -11.64,0 -28.28,1.19 -50.14,3.47l0 171.46zm404.99 75.99l-89.14 0 0 -512.58 89.14 0 0 512.58zm662.96 0l-558.28 0 0 -512.58 86.27 0 0 436.59 150.44 0 0 -436.59 86.27 0 0 436.59 150.44 0 0 -436.59 84.85 0 0 512.58zm497.79 0l-89.13 0 0 -435.15 -98.39 0c-7,69.53 -17.71,135.85 -32.2,198.69 -14.5,62.97 -31.97,112.32 -52.16,148.16 -20.2,35.85 -43.14,60.34 -68.81,73.49 -25.67,13.26 -56.56,19.83 -92.81,19.83l0 -83.88c16.28,0 30.07,-2.15 41.48,-6.45 11.28,-4.3 23.05,-14.1 35.29,-29.27 12.11,-15.18 25.07,-43.61 38.74,-85.44 13.67,-41.69 25.78,-90.81 36.01,-147.31 10.34,-56.52 18.3,-111.6 23.88,-165.25l258.1 0 0 512.58zm195.48 -432.29l0 120.44 168.99 0 0 77.42 -168.99 0 0 153.41 231.01 0 0 81.01 -321.55 0 0 -512.58 325.83 0 0 80.29 -235.29 0zm614.02 432.29l0 -230.84 -203.21 0 0 230.84 -90.55 0 0 -512.58 90.55 0 0 200.73 203.21 0 0 -200.73 89.12 0 0 512.58 -89.12 0zm487.68 0l0 -230.84 -203.21 0 0 230.84 -90.55 0 0 -512.58 90.55 0 0 200.73 203.21 0 0 -200.73 89.12 0 0 512.58 -89.12 0zm169.69 -260.84c0,-72.77 19.84,-134.53 59.65,-185.07 39.81,-50.66 93.16,-76 160.07,-76 72.61,0 128.47,22.7 167.44,68.11 38.98,45.28 58.46,109.69 58.46,192.96 0,83.52 -20.32,149.24 -60.96,197.39 -40.52,48.03 -98.04,72.05 -172.31,72.05 -69.16,0 -121.8,-24.25 -158.05,-72.64 -36.24,-48.39 -54.29,-113.99 -54.29,-196.8zm94.11 0.12c0,62.37 10.21,109.33 30.66,140.87 20.32,31.66 49.54,47.43 87.57,47.43 45.27,0 79.74,-15.89 103.51,-47.56 23.76,-31.77 35.65,-78.62 35.65,-140.75 0,-120.08 -43.98,-180.18 -131.79,-180.18 -40.88,0 -72.01,16.25 -93.4,48.64 -21.52,32.5 -32.2,76.34 -32.2,131.54zm748.75 -171.58l-226.02 0 0 432.29 -91.26 0 0 -512.58 317.28 0 0 80.29zm50.51 171.45c0,-72.77 19.84,-134.53 59.66,-185.07 39.8,-50.66 93.16,-76 160.06,-76 72.61,0 128.47,22.7 167.44,68.11 38.98,45.28 58.46,109.69 58.46,192.96 0,83.52 -20.32,149.24 -60.96,197.39 -40.52,48.03 -98.04,72.05 -172.3,72.05 -69.17,0 -121.81,-24.25 -158.05,-72.64 -36.25,-48.39 -54.3,-113.99 -54.3,-196.8zm94.11 0.12c0,62.37 10.22,109.33 30.66,140.87 20.32,31.66 49.54,47.43 87.58,47.43 45.26,0 79.73,-15.89 103.5,-47.56 23.76,-31.77 35.65,-78.62 35.65,-140.75 0,-120.08 -43.97,-180.18 -131.79,-180.18 -40.87,0 -72.01,16.25 -93.4,48.64 -21.52,32.5 -32.2,76.34 -32.2,131.54zm-5230.65 832.31c0,-72.77 19.84,-134.53 59.66,-185.07 39.81,-50.66 93.16,-76 160.06,-76 72.61,0 128.47,22.7 167.44,68.11 38.98,45.28 58.47,109.69 58.47,192.96 0,83.52 -20.32,149.24 -60.96,197.39 -40.53,48.03 -98.05,72.05 -172.31,72.05 -69.17,0 -121.81,-24.25 -158.05,-72.64 -36.25,-48.39 -54.3,-113.99 -54.3,-196.8zm94.12 0.12c0,62.37 10.21,109.33 30.65,140.87 20.32,31.66 49.54,47.43 87.58,47.43 45.27,0 79.73,-15.89 103.5,-47.56 23.77,-31.77 35.65,-78.62 35.65,-140.75 0,-120.08 -43.97,-180.18 -131.79,-180.18 -40.87,0 -72,16.25 -93.4,48.64 -21.51,32.5 -32.19,76.34 -32.19,131.54zm521.31 -51.26c25.07,-2.27 47.17,-3.47 66.18,-3.47 59.42,0 105.64,13.74 138.68,41.34 33.16,27.48 49.68,67.04 49.68,118.65 0,47.43 -16.51,85.19 -49.68,113.28 -33.04,28.07 -79.26,42.17 -138.68,42.17l-156.02 0 0 -512.58 308 0 0 78.85 -218.16 0 0 121.76zm0 235.98c18.78,1.43 35.05,2.15 48.95,2.15 39.81,0 68.33,-7.53 85.56,-22.47 17.23,-14.93 25.9,-36.32 25.9,-64.41 0,-24.49 -7.84,-44.2 -23.65,-59.14 -15.68,-14.93 -44.08,-22.47 -85.08,-22.47 -16.16,0 -33.39,0.96 -51.68,2.75l0 163.57zm312.41 -184.85c0,-72.77 19.84,-134.53 59.66,-185.07 39.8,-50.66 93.16,-76 160.06,-76 72.61,0 128.47,22.7 167.44,68.11 38.98,45.28 58.47,109.69 58.47,192.96 0,83.52 -20.33,149.24 -60.97,197.39 -40.52,48.03 -98.04,72.05 -172.3,72.05 -69.17,0 -121.81,-24.25 -158.05,-72.64 -36.25,-48.39 -54.3,-113.99 -54.3,-196.8zm94.11 0.12c0,62.37 10.22,109.33 30.66,140.87 20.32,31.66 49.54,47.43 87.58,47.43 45.27,0 79.73,-15.89 103.5,-47.56 23.76,-31.77 35.65,-78.62 35.65,-140.75 0,-120.08 -43.97,-180.18 -131.79,-180.18 -40.87,0 -72,16.25 -93.4,48.64 -21.51,32.5 -32.2,76.34 -32.2,131.54zm522.03 71.81l0 188.91 -90.54 0 0 -512.34c66.66,-2.51 102.07,-3.82 106.23,-3.82 79.49,0 138.08,12.3 175.87,37.03 37.67,24.74 56.57,63.57 56.57,116.5 0,117.46 -69.04,176.23 -207.01,176.23 -10.45,0 -24.12,-0.84 -41.11,-2.51zm0 -244.82l0 164.18c15.57,1.43 27.69,2.15 36.25,2.15 41.35,0 71.53,-6.81 90.67,-20.43 19.01,-13.74 28.52,-36.33 28.52,-67.87 0,-52.93 -42.67,-79.45 -127.87,-79.45 -12.83,0 -21.98,0.48 -27.56,1.43zm715.73 -78.85c-28.77,104.54 -64.9,200.73 -108.38,288.54 -43.49,87.82 -85.19,147.93 -125.24,180.42 -40.04,32.38 -92.93,48.63 -158.53,48.63l0 -83.88c2.74,0.48 8.21,0.72 16.28,0.72 29.72,0 54.19,-5.38 73.44,-16.01 19.13,-10.75 36.37,-27 51.34,-48.63l-182.41 -369.8 100.53 0 133.69 298.35c41.23,-84.48 76.29,-184.01 105.16,-298.35l94.12 0zm508.49 659.54l-79.87 0 0 -146.97 -333.67 0 0 146.97 -79.85 0 0 -222.24 34.93 0c27.8,-36.21 56.09,-86.63 84.6,-151.38 28.52,-64.76 55.26,-160.11 80.09,-285.92l236.72 0 0 437.3 57.05 0 0 222.24zm-144.03 -222.24l0 -362.76 -86.99 0c-11.89,72.65 -29.71,141.71 -53.36,207.31 -23.76,65.6 -49.67,117.46 -77.83,155.45l218.17 0zm187.52 -185.56c0,-72.77 19.85,-134.53 59.66,-185.07 39.81,-50.66 93.16,-76 160.06,-76 72.61,0 128.47,22.7 167.44,68.11 38.98,45.28 58.47,109.69 58.47,192.96 0,83.52 -20.32,149.24 -60.96,197.39 -40.53,48.03 -98.05,72.05 -172.31,72.05 -69.17,0 -121.8,-24.25 -158.05,-72.64 -36.24,-48.39 -54.3,-113.99 -54.3,-196.8zm94.12 0.12c0,62.37 10.21,109.33 30.65,140.87 20.32,31.66 49.55,47.43 87.58,47.43 45.27,0 79.73,-15.89 103.51,-47.56 23.76,-31.77 35.64,-78.62 35.64,-140.75 0,-120.08 -43.97,-180.18 -131.79,-180.18 -40.87,0 -72,16.25 -93.4,48.64 -21.51,32.5 -32.19,76.34 -32.19,131.54zm587.49 260.71l-156.02 0 0 -512.34c80.09,-3.47 128.22,-5.26 144.49,-5.26 52.65,0 94.12,11.48 124.19,34.29 30.06,22.95 45.04,55.45 45.04,97.74 0,41.1 -21.4,73.24 -64.18,96.3 63.22,21.87 94.84,67.75 94.84,137.41 0,46.72 -17.47,83.63 -52.53,110.88 -35.06,27.36 -80.33,40.98 -135.83,40.98zm-65.48 -439.1l0 122.23c18.07,0.96 32.8,1.44 44.21,1.44 58.94,0 88.4,-22.22 88.4,-66.79 0,-39.55 -26.96,-59.38 -80.8,-59.38 -13.9,0 -31.14,0.84 -51.82,2.51zm0 193.56l0 169.55c18.42,1.43 33.4,2.15 45.04,2.15 37.79,0 66.42,-6.45 85.68,-19.36 19.37,-13.03 29,-36.32 29,-70.14 0,-28.68 -8.33,-49.71 -24.97,-63.21 -16.63,-13.37 -46.34,-20.07 -89.12,-20.07 -16.28,0 -31.49,0.36 -45.64,1.08zm634.69 245.53l-37.91 -103.95 -174.67 0 -34.83 103.95 -101.24 0 203.91 -519.75 39.22 0 205.35 519.75 -99.82 0zm-125.49 -362.74l-61.44 189.25 122.52 0 -61.08 -189.25zm574.09 362.74l0 -230.84 -203.21 0 0 230.84 -90.55 0 0 -512.58 90.55 0 0 200.73 203.21 0 0 -200.73 89.12 0 0 512.58 -89.12 0zm589.63 0l-90.54 0 0 -344.82 -266.67 352.71 -38.5 0 0 -520.47 90.55 0 0 344.82 266.67 -352.71 38.49 0 0 520.47zm456.44 0l-89.84 0 0 -212.92 -21.15 0c-39.21,0 -69.64,9.81 -91.27,29.28 -21.74,19.48 -36.95,50.19 -45.63,92 -7,34.06 -18.18,58.54 -33.51,73.48 -15.33,14.94 -37.08,22.47 -65.12,22.47 -14.14,0 -24.36,-0.71 -30.66,-2.15l0 -81.01c4.16,0.96 8.69,1.44 13.55,1.44 11.41,0 19.49,-3.59 24.24,-10.63 4.76,-7.18 8.8,-18.4 12.01,-33.81 12.12,-58.43 45.38,-98.7 99.93,-121.16 -44.56,-10.52 -75.1,-26.4 -91.86,-47.68 -16.76,-21.39 -25.07,-47.08 -25.07,-77.18 0,-42.18 16.39,-77.9 49.07,-106.95 32.8,-29.03 81.99,-43.49 147.71,-43.49 43.61,0 92.81,2.27 147.59,6.69l0 511.63zm-89.13 -286.04l0 -154.97c-18.53,-2.26 -40.88,-3.47 -66.9,-3.47 -28.76,0 -52.4,6.45 -70.82,19.25 -18.42,12.78 -27.69,31.42 -27.69,55.91 0,53.89 38.49,81.37 115.61,82.56l49.8 0.71z"/>
  <path class="fil1" d="M2291.74 6570.19c-2697.95,-597.97 -1060.88,-2766.01 167.26,-4111.59 -436.42,1408.32 -773.32,2646.58 -167.26,4111.59zm5476.03 -179.65c-674.78,586.26 -1216.86,1142.9 -2114.17,1427.64 -1040.46,330.19 -1970.82,262.85 -2525.62,-734.68 1389,0 2725.37,-311.58 3965.42,-898.25 118.27,-55.96 356.23,-172.04 458.56,-256.67 -1371.81,219.22 -2655.94,705.03 -4629.71,732.36 -1153.91,-2208.57 453.87,-4780.15 1203.81,-6660.94 -1535.65,760.81 -7267.78,6591.23 -1834.3,7134.79 349.34,-4.38 256.4,-11.03 438.92,224.02 1302.09,2013.17 4543.34,677.6 5037.07,-968.27z"/>
 </g>
</svg>
